<?xml version="1.0" encoding="UTF-8" standalone="no"?>
<!-- Created with Inkscape (http://www.inkscape.org/) -->

<svg
   xmlns:dc="http://purl.org/dc/elements/1.1/"
   xmlns:cc="http://creativecommons.org/ns#"
   xmlns:rdf="http://www.w3.org/1999/02/22-rdf-syntax-ns#"
   xmlns:svg="http://www.w3.org/2000/svg"
   xmlns="http://www.w3.org/2000/svg"
   xmlns:sodipodi="http://sodipodi.sourceforge.net/DTD/sodipodi-0.dtd"
   xmlns:inkscape="http://www.inkscape.org/namespaces/inkscape"
   width="296.33011"
   height="502.92395"
   id="svg2"
   version="1.1"
   inkscape:version="0.47 r22583"
   sodipodi:docname="MadagascarProvinces001.svg">
  <defs
     id="defs4">
    <inkscape:path-effect
       effect="spiro"
       id="path-effect3736"
       is_visible="true" />
    <inkscape:path-effect
       effect="spiro"
       id="path-effect3729"
       is_visible="true" />
    <inkscape:path-effect
       effect="spiro"
       id="path-effect3722"
       is_visible="true" />
    <inkscape:path-effect
       effect="spiro"
       id="path-effect3715"
       is_visible="true" />
    <inkscape:path-effect
       effect="spiro"
       id="path-effect3708"
       is_visible="true" />
    <inkscape:perspective
       sodipodi:type="inkscape:persp3d"
       inkscape:vp_x="0 : 526.18109 : 1"
       inkscape:vp_y="0 : 1000 : 0"
       inkscape:vp_z="744.09448 : 526.18109 : 1"
       inkscape:persp3d-origin="372.04724 : 350.78739 : 1"
       id="perspective10" />
    <inkscape:perspective
       id="perspective2824"
       inkscape:persp3d-origin="0.5 : 0.33333333 : 1"
       inkscape:vp_z="1 : 0.5 : 1"
       inkscape:vp_y="0 : 1000 : 0"
       inkscape:vp_x="0 : 0.5 : 1"
       sodipodi:type="inkscape:persp3d" />
    <inkscape:perspective
       id="perspective3692"
       inkscape:persp3d-origin="0.5 : 0.33333333 : 1"
       inkscape:vp_z="1 : 0.5 : 1"
       inkscape:vp_y="0 : 1000 : 0"
       inkscape:vp_x="0 : 0.5 : 1"
       sodipodi:type="inkscape:persp3d" />
    <inkscape:perspective
       id="perspective2849"
       inkscape:persp3d-origin="0.5 : 0.33333333 : 1"
       inkscape:vp_z="1 : 0.5 : 1"
       inkscape:vp_y="0 : 1000 : 0"
       inkscape:vp_x="0 : 0.5 : 1"
       sodipodi:type="inkscape:persp3d" />
    <inkscape:perspective
       id="perspective3689"
       inkscape:persp3d-origin="0.5 : 0.33333333 : 1"
       inkscape:vp_z="1 : 0.5 : 1"
       inkscape:vp_y="0 : 1000 : 0"
       inkscape:vp_x="0 : 0.5 : 1"
       sodipodi:type="inkscape:persp3d" />
    <inkscape:perspective
       id="perspective3711"
       inkscape:persp3d-origin="0.5 : 0.33333333 : 1"
       inkscape:vp_z="1 : 0.5 : 1"
       inkscape:vp_y="0 : 1000 : 0"
       inkscape:vp_x="0 : 0.5 : 1"
       sodipodi:type="inkscape:persp3d" />
  </defs>
  <sodipodi:namedview
     id="base"
     pagecolor="#ffffff"
     bordercolor="#666666"
     borderopacity="1.0"
     inkscape:pageopacity="0.0"
     inkscape:pageshadow="2"
     inkscape:zoom="1.4435582"
     inkscape:cx="148.16505"
     inkscape:cy="251.46197"
     inkscape:document-units="px"
     inkscape:current-layer="layer1"
     showgrid="false"
     inkscape:window-width="1280"
     inkscape:window-height="975"
     inkscape:window-x="-4"
     inkscape:window-y="-4"
     inkscape:window-maximized="1" />
  <metadata
     id="metadata7">
    <rdf:RDF>
      <cc:Work
         rdf:about="">
        <dc:format>image/svg+xml</dc:format>
        <dc:type
           rdf:resource="http://purl.org/dc/dcmitype/StillImage" />
        <dc:title />
      </cc:Work>
    </rdf:RDF>
  </metadata>
  <g
     inkscape:label="レイヤー 1"
     inkscape:groupmode="layer"
     id="layer1"
     transform="translate(-176.67461,-177.63101)">
    <rect
       style="fill:#ffffff;fill-opacity:1;fill-rule:evenodd;stroke:none"
       id="rect3769"
       width="296.33011"
       height="502.92395"
       x="176.67461"
       y="177.63101" />
    <path
       style="fill:#0000ff;fill-opacity:1;stroke:#000000;stroke-width:3;stroke-miterlimit:4;stroke-opacity:1;stroke-dasharray:none"
       d="m 271.88545,658.73606 c -1.29717,-1.00736 -3.8182,-3.05732 -5.6023,-4.55546 l -3.2438,-2.72391 -5.6477,-0.66378 -5.64771,-0.66377 0,-1.24569 0,-1.24569 -1.75,-0.55498 c -0.9625,-0.30524 -2.875,-1.22446 -4.25,-2.04271 -1.375,-0.81825 -3.2875,-1.73187 -4.25,-2.03027 l -1.75,-0.54253 0,-2.29084 0,-2.29084 -2,-1.24902 -2,-1.24902 0,-3.39453 0,-3.39453 -3.54894,-2.84706 -3.54894,-2.84706 -0.8733,-3.87207 c -0.48031,-2.12964 -0.98912,-7.97961 -1.13069,-12.99994 l -0.25739,-9.12786 1.25488,-2.32486 1.25488,-2.32487 -0.66315,-3.92513 -0.66315,-3.92514 -1.25381,0 -1.25382,0 -1.23003,-4.1055 -1.23004,-4.10549 -3.07776,-3.38224 -3.07777,-3.38223 -1.73069,-5.11234 -1.7307,-5.11234 0.47011,-1.7977 0.4701,-1.79769 -1.1696,-2.18542 -1.1696,-2.18542 1.62288,-1.79326 1.62287,-1.79326 -1.54317,-0.59217 -1.54317,-0.59217 0,-3.56277 0,-3.56277 1.5,-0.5756 1.5,-0.57561 0,-2.48864 0,-2.48864 2.0979,-2.94623 2.0979,-2.94623 -0.6383,-2.54318 -0.63829,-2.54318 0.60778,-1.91496 0.60778,-1.91496 4.43262,0 4.43261,0 0,-1.3908 c 0,-0.76493 0.89012,-3.35243 1.97804,-5.75 l 1.97804,-4.3592 0.0392,-3 0.0392,-3 2.48272,-2.35496 c 1.3655,-1.29523 2.53897,-2.98273 2.60772,-3.75 0.19728,-2.20172 0.3891,-2.69217 2.4407,-6.24058 1.82824,-3.16209 5.96348,-8.95553 8.61177,-12.06501 l 1.20133,-1.41054 -0.0817,-3.58946 -0.0817,-3.58945 -1.31759,-3.22517 -1.31759,-3.22517 1.29233,-3.57387 1.29232,-3.57386 -2.33246,-4.94173 -2.33246,-4.94173 -1.76242,-0.58056 -1.76242,-0.58057 0.0899,-5.17867 c 0.11477,-6.60958 -0.12665,-7.55202 -2.95022,-11.51736 l -2.33187,-3.27482 -0.18151,-6.19898 -0.18151,-6.19897 -0.91146,-1.47477 -0.91146,-1.47477 0.23323,-5.90567 0.23323,-5.90568 -1.41347,-1.61382 c -0.77741,-0.88761 -1.72873,-2.64744 -2.11404,-3.91075 l -0.70055,-2.29692 4.08227,-6.51083 c 2.24526,-3.58096 4.08531,-6.82235 4.08902,-7.20308 0.004,-0.38074 2.02871,-3.82864 4.5,-7.662 l 4.49326,-6.96976 0,-2.84598 0,-2.84599 -1.08503,-2.0274 -1.08503,-2.0274 0.60408,-2.40686 0.60408,-2.40686 4.51613,0 4.51614,0 2.46481,1.61501 2.46482,1.61501 0,-1.61501 0,-1.61501 0.91844,0 c 0.50514,0 1.82406,-1.4625 2.93093,-3.25 l 2.01249,-3.25 3.12084,-1.83712 3.12085,-1.83712 1.44823,0.55573 1.44822,0.55574 0.0304,1.78139 0.0304,1.78138 1.01928,-1.75 1.01928,-1.75 1.95031,0 1.95031,0 0,2 0,2 2.09007,0 2.09007,0 -0.34007,-4.5851 -0.34007,-4.58511 4.75,-0.30302 4.75,-0.30303 0,0.88813 0,0.88813 2,0 2,0 0.11842,-1.25 c 0.0651,-0.6875 0.0651,-1.5875 0,-2 l -0.11842,-0.75 2.87219,0 2.87219,0 0.72611,4.25 0.7261,4.25 0.83142,-2 0.83142,-2 0.0703,2.12756 0.0703,2.12755 1.25,1.02216 1.25,1.02216 1,-1.14972 c 0.55,-0.63234 1.06324,-1.94164 1.14053,-2.90956 l 0.14053,-1.75986 -2.89053,-2.05824 -2.89053,-2.05824 0,-1.89144 0,-1.89143 2.73978,-2.54047 c 1.50688,-1.39726 3.30688,-2.54047 4,-2.54047 l 1.26022,0 0,-1.05103 0,-1.05102 3.2703,-1.36642 c 1.79867,-0.75153 4.11841,-2.30357 5.15499,-3.44898 1.03658,-1.1454 2.26494,-2.08255 2.7297,-2.08255 l 0.84501,0 0,1.5 0,1.5 1.5,0 1.5,0 0,1 c 0,0.55 -0.44396,1 -0.98658,1 l -0.98658,0 -1.50678,3.60623 -1.50678,3.60624 0.57312,0.92733 0.57312,0.92732 3.45504,-3.03356 3.45503,-3.03356 1.96521,0 1.9652,0 0,-1.01357 c 0,-1.22892 -2.03612,-4.90436 -3.75,-6.76919 -1.62305,-1.766 -1.75202,-1.41778 2.071,-5.59155 l 3.32098,-3.62569 1.11998,0 c 0.61599,0 1.41027,-0.46971 1.76508,-1.0438 l 0.64511,-1.04381 -1.29834,-1.56441 -1.29835,-1.56441 1.90851,-1.39553 1.90851,-1.39553 0.99359,0.99359 0.99359,0.99359 -2.30714,4.10501 -2.30714,4.10501 1.13164,2.48369 1.13165,2.4837 1.23565,-0.41142 1.23565,-0.41141 0.3235,-1.66804 c 0.33919,-1.74894 6.30041,-12.22701 8.23183,-14.46913 l 1.12235,-1.30289 -1.63567,-3.44692 -1.63567,-3.44692 1.79683,-2.46876 1.79683,-2.46876 2.25,-0.0314 2.25,-0.0314 0,-2 0,-2 2,0 2,0 0,-1.45031 0,-1.45031 -1.75,-1.01929 -1.75,-1.01928 1.75,-0.0304 1.75,-0.0304 0,-1.04651 0,-1.04651 -3.02992,-1.70349 -3.02992,-1.70349 0.64298,-4 c 0.35365,-2.2 1.07506,-4.53581 1.60315,-5.19069 l 0.96015,-1.19069 2.15701,0.79793 2.15701,0.79793 0.55932,2.39276 0.55931,2.39276 2.71046,0.31642 2.71045,0.31642 0,0.95663 0,0.95663 2.61015,-1.71023 2.61015,-1.71024 -2.0935,-0.77443 -2.09349,-0.77443 0.59365,-1.54702 0.59364,-1.54702 2.3897,-0.59977 2.3897,-0.59978 0,-1.2184 0,-1.2184 2.87638,0.42216 2.87638,0.42217 2.62362,-3.43975 2.62362,-3.43975 0,-3.6556 0,-3.65561 0.83948,0 c 1.17019,0 3.16052,-4.63239 3.16052,-7.35593 l 0,-2.26182 -1.4682,-1.94112 -1.46819,-1.94113 -0.0318,-2.25 -0.0318,-2.25 1.42054,0 1.42055,0 0.67298,-3.06405 0.67298,-3.06406 2.65647,-1.17375 c 1.46107,-0.64556 3.17171,-1.8392 3.80143,-2.65252 l 1.14494,-1.47877 -1.64494,-1.25162 -1.64495,-1.25163 1.68045,-0.0318 1.68045,-0.0318 0.36772,-2.24999 0.36771,-2.25 3.21136,6.44686 c 1.76624,3.54578 3.6457,6.71531 4.17658,7.04341 1.00074,0.61849 1.81276,3.86409 1.94142,7.75972 l 0.0743,2.25 1.5,0 1.5,0 0,3 0,3 1,0 c 0.55,0 1,-0.45 1,-1 0,-2.095 1.74406,-0.8483 4.32237,3.08974 l 2.67763,4.08974 0,3.41026 0,3.41026 0.93261,0 0.93261,0 0.55919,1.76184 c 0.30756,0.96902 0.73445,3.10652 0.94866,4.75 0.21421,1.64349 1.13148,5.11309 2.03837,7.71024 l 1.64891,4.72208 0.86684,9.27792 0.86683,9.27792 -1.04774,1.28408 -1.04775,1.28409 1.26741,2.71591 c 0.69707,1.49376 1.65644,3.48377 2.13193,4.42225 0.47549,0.93847 1.16216,3.63847 1.52594,6 l 0.66141,4.29367 2.88778,5.78169 2.88778,5.78169 -1.94533,6.29825 c -1.06993,3.46403 -2.92508,8.38258 -4.12256,10.9301 l -2.17723,4.63186 -2.90783,-2.14985 -2.90783,-2.14986 0,-1.11194 c 0,-0.61157 -0.55728,-1.66922 -1.23839,-2.35033 -0.68112,-0.68112 -1.26599,-1.78362 -1.29972,-2.45 -0.0337,-0.66639 -0.4139,-2.83184 -0.84485,-4.81211 l -0.78353,-3.60051 -3.74382,0.68461 c -2.0591,0.37653 -4.27164,1.01082 -4.91675,1.40952 l -1.17294,0.72491 0,3.19759 c 0,1.75867 0.48643,4.76961 1.08096,6.69098 l 1.08097,3.4934 -0.0672,3.58166 -0.0672,3.58166 2.25936,1.96449 2.25936,1.96449 -0.1275,6.62962 -0.1275,6.62963 -1.64566,1.64565 c -1.93722,1.93723 -2.12648,4.0876 -0.4509,5.12316 l 1.19476,0.7384 -3.44476,1.1597 -3.44475,1.15969 -0.0437,2.46455 -0.0437,2.46455 -3.18793,5.6487 -3.18793,5.6487 0.98165,0.60669 0.98164,0.60669 0,4.94099 0,4.94098 1.11501,0 1.11501,0 -1.61501,2.46482 -1.61501,2.46481 0,4.97617 0,4.97617 -1,0.61803 -1,0.61803 0,1.81387 c 0,1.64372 -1.61873,5.91219 -5.58197,14.71923 -0.77992,1.73312 -1.41803,4.1039 -1.41803,5.2684 l 0,2.11728 -2.48873,4.75961 -2.48874,4.75961 -0.87654,4.69189 -0.87654,4.6919 -1.56686,2.39133 -1.56686,2.39134 -1.26794,6.13875 -1.26794,6.13876 -0.86731,0 -0.86732,0 0.62591,1.97207 0.62592,1.97207 -2.55853,4.36579 -2.55852,4.36579 0,2.43963 0,2.43964 -1.36958,1.9725 -1.36958,1.97251 -0.64786,4 c -0.35633,2.2 -0.81509,5.62714 -1.01948,7.61587 l -0.37162,3.61586 -1.72595,2.63414 -1.72595,2.63413 -1.38499,0 -1.38499,0 0,0.94098 c 0,0.51754 0.45,1.2191 1,1.55902 0.55,0.33992 1,1.26648 1,2.05902 l 0,1.44098 -1.125,-0.25 -1.125,-0.25 -0.45833,1.25 -0.45834,1.25 0.83334,-7e-5 0.83333,-8e-5 -0.17673,2.75008 c -0.0972,1.51254 -0.48718,3.76257 -0.86663,5.00007 l -0.6899,2.25 -1.38337,0 -1.38337,0 0,2.38337 0,2.38337 -2.01896,0.52797 -2.01896,0.52797 1.2572,2.75924 1.2572,2.75925 -1.20658,0.4022 -1.20658,0.40219 -0.63069,3.36185 -0.63069,3.36185 -1.89744,1.71716 -1.89744,1.71716 1.06587,1.28429 1.06586,1.28429 -1.1759,2.19717 -1.17589,2.19718 0.61005,3.81507 0.61006,3.81506 -1.25905,0.80168 -1.25904,0.80168 -1.25941,3.61219 -1.2594,3.61219 -0.11575,5.13781 -0.11575,5.13781 -0.7984,0 -0.79839,0 -1.61776,5.56488 -1.61775,5.56488 0.58747,1.85096 0.58747,1.85097 -1.05969,0.65492 c -0.58283,0.36021 -2.17136,2.84871 -3.53008,5.53 l -2.47038,4.87506 0.59639,1.55417 0.59639,1.55416 -1.00725,0 -1.00725,0 -1.23189,5.25 c -0.67753,2.8875 -1.71293,6.15 -2.30087,7.25 -0.58795,1.1 -1.12856,3.39103 -1.20136,5.09117 l -0.13237,3.09116 -1.9165,2.64649 -1.91649,2.64648 -3.5,1.02857 c -1.925,0.56572 -4.3121,1.65137 -5.30467,2.41257 l -1.80466,1.38399 -5.86975,-0.53225 -5.86975,-0.53225 -2.71044,2.13204 -2.71045,2.13203 -1.7874,0 -1.7874,0 -4.32774,3.46739 c -2.38026,1.90706 -5.85361,4.16058 -7.71857,5.00781 l -3.39083,1.54043 -5.10917,0.57375 -5.10914,0.57374 -2.35849,-1.83156 z m 148.85849,-288.42727 0,-2.09571 1.71561,-2.90429 1.71561,-2.90429 1.28439,0 1.28439,0 0,1.04181 c 0,0.573 -0.9,2.00785 -2,3.18856 l -2,2.14675 0,1.81144 0,1.81144 -1,0 -1,0 0,-2.09571 z m -53.51111,-121.92227 -0.68916,-1.11509 0.52187,-0.52186 c 0.28702,-0.28703 1.30216,-0.36959 2.25586,-0.18347 l 1.73399,0.3384 -1.5667,1.29855 -1.56669,1.29856 -0.68917,-1.11509 z"
       id="path3679" />
    <path
       style="fill:#6bbb7e;fill-opacity:1;stroke:#000000;stroke-width:1;stroke-miterlimit:4;stroke-opacity:1;stroke-dasharray:none"
       d="m 226.3125,97.0625 -2.5,0.84375 -2.53125,3.21875 -4.03125,0.84375 -1.625,-0.625 -0.6875,0 0,2 0,2 -2.25,0.0312 -2.25,0.0312 -1.8125,2.46875 -1.78125,2.46875 1.625,3.4375 1.625,3.46875 L 209,118.53125 c -1.93142,2.24212 -7.91081,12.71981 -8.25,14.46875 l -0.3125,1.6875 -1.25,0.40625 -1.21875,0.40625 -1.15625,-2.46875 -1.125,-2.5 2.3125,-4.09375 2.3125,-4.125 -1,-0.96875 -1,-1 -1.90625,1.375 -1.90625,1.40625 1.3125,1.5625 1.28125,1.5625 -0.625,1.0625 c -0.35481,0.57409 -1.16526,1.03125 -1.78125,1.03125 l -1.125,0 -3.3125,3.625 c -3.82302,4.17377 -3.68555,3.82775 -2.0625,5.59375 1.71388,1.86483 3.75,5.55233 3.75,6.78125 l 0,1 -1.96875,0 -1.96875,0 -3.46875,3.03125 -3.4375,3.03125 -0.5625,-0.90625 -0.59375,-0.9375 1.5,-3.625 1.53125,-3.59375 0.96875,0 c 0.54262,0 1,-0.45 1,-1 l 0,-1 -1.5,0 -1.5,0 0,-1.5 0,-1.5 -0.84375,0 c -0.46476,0 -1.71342,0.94835 -2.75,2.09375 -1.03658,1.14541 -3.35758,2.68597 -5.15625,3.4375 l -3.25,1.375 0,1.03125 0,1.0625 -1.28125,0 c -0.69312,0 -2.49312,1.13399 -4,2.53125 l -2.71875,2.5625 0,1.875 0,1.90625 2.875,2.0625 2.90625,2.03125 -0.15625,1.78125 c -0.0773,0.96792 -0.575,2.27391 -1.125,2.90625 l -1,1.15625 -1.25,-1.03125 -1.25,-1.03125 -0.0625,-2.125 -0.0937,-2.125 -0.8125,2 -0.84375,2 -0.71875,-4.25 -0.71875,-4.25 -2.875,0 -2.875,0 0.125,0.75 c 0.0651,0.4125 0.0651,1.3125 0,2 l -0.125,1.25 -2,0 -2,0 0,-0.875 0,-0.90625 -4.75,0.3125 -4.75,0.3125 0.34375,4.5625 0.34375,4.59375 -2.09375,0 -2.09375,0 0,-2 0,-2 -1.96875,0 -1.9375,0 -1.03125,1.75 -1,1.75 -0.0312,-1.78125 -0.0312,-1.78125 -1.46875,-0.5625 -1.4375,-0.5625 -3.125,1.84375 -3.125,1.84375 -2,3.25 c -1.10687,1.7875 -2.43236,3.25 -2.9375,3.25 l -0.90625,0 0,1.625 0,1.59375 -2.46875,-1.59375 -2.46875,-1.625 -4.5,0 -4.53125,0 -0.59375,2.40625 -0.625,2.40625 1.09375,2.03125 1.09375,2.03125 0,2.84375 0,2.84375 -4.5,6.96875 c -2.47129,3.83336 -4.496,7.27551 -4.5,7.65625 -0.0037,0.38073 -1.84849,3.63779 -4.09375,7.21875 l -4.0625,6.5 0.6875,2.3125 c 0.38531,1.26331 1.34759,3.01864 2.125,3.90625 L 90,222.0625 l -0.25,5.90625 -0.21875,5.90625 0.90625,1.46875 0.90625,1.5 0.1875,6.1875 0.1875,6.1875 2.3125,3.28125 c 2.82357,3.96534 3.08352,4.92167 2.96875,11.53125 l -0.09375,5.15625 1.75,0.59375 1.78125,0.59375 0.1875,0.40625 4.65625,0.125 2.1875,1.71875 2.03125,1.875 8.15625,0.34375 3,-1.59375 5.3125,-0.3125 -1.5625,-2.96875 0.15625,-4.09375 -1.875,-3.125 1.09375,-4.09375 -2.5,-6.28125 -3.46875,-6.4375 0,-2.34375 5.5,-4.25 8,0.5 3.9375,1.40625 4.21875,0.625 1.8125,0.8125 0.875,-1.75 1.71875,-1.09375 3.78125,0.625 3.4375,-8.65625 1.5625,-5.46875 1.90625,-0.46875 2.8125,1.5625 2.65625,1.25 2.0625,-0.46875 5.15625,-2.34375 3.46875,-2.375 5.65625,-0.46875 6.28125,1.09375 2.8125,2.6875 3.75,-0.3125 4.71875,-3 2.1875,0.46875 5.96875,5.1875 2.53125,1.5625 5.15625,0 3.9375,-0.9375 1.40625,-0.0625 1.40625,-3.625 2.9375,-4.75 1.8125,-6.3125 1.125,-5.71875 0.71875,-0.4375 0.6875,-5.4375 -7.6875,-12.15625 -0.15625,-15.9375 2.8125,0 1.53125,-0.84375 8.53125,0.4375 3.21875,2.78125 1.6875,0.125 4.75,4.5 0.40625,7.96875 1.8125,1.375 3.625,-2.9375 4.34375,-0.40625 8.125,-10.0625 0.125,-5.1875 -5.71875,-4.1875 1.53125,-2.9375 L 254,165 l 0.28125,-2.375 -0.96875,-1.6875 -0.4375,-6 1.125,-1.40625 -0.125,-5.03125 -2.09375,-3.21875 2.65625,-1.375 2.375,-0.15625 2.5,-0.6875 1.96875,-1.125 1.375,-1.125 0,-2.78125 2.8125,0.28125 0.6875,-6.03125 4.625,-0.125 0.625,-0.46875 -0.34375,-0.375 -7.125,-11.03125 -0.28125,-4.75 L 252.1875,106 l -3.5,0.5625 -3.34375,1.28125 -7.5625,-4.21875 -7.6875,-0.28125 -5.15625,-4.03125 1.375,-2.25 z"
       id="path3737"
       transform="translate(143.8131,174.05911)" />
    <path
       style="fill:#6cba7e;fill-opacity:1"
       d="m 225.5,72.5 c -0.9537,-0.18612 -1.96298,-0.09953 -2.25,0.1875 l -0.53125,0.53125 0.6875,1.09375 0.6875,1.125 1.59375,-1.28125 1.5625,-1.3125 L 225.5,72.5 z"
       id="path3728"
       transform="translate(143.8131,174.05911)" />
    <path
       style="fill:#6cba7e;fill-opacity:1;stroke:#000000;stroke-width:1;stroke-miterlimit:4;stroke-opacity:1;stroke-dasharray:none"
       d="m 198.78125,434.59375 -0.9375,-0.4375 -7.8125,-4.25 -3.3125,2.5 -0.15625,4.40625 -2.5,2.96875 -2.53125,0.625 0,-4.875 -9.71875,-7.375 -4.5625,-3.59375 0,-2.84375 0.625,-0.9375 -0.15625,-6.28125 0.15625,-4.6875 -0.3125,-7.0625 -2.34375,-2.375 -2.03125,-3.90625 -2.0625,-4.25 -1.71875,-1.875 -2.8125,-2.1875 -3,-1.75 -2.8125,0.65625 -2.96875,1.5625 -6.75,2.8125 -4.875,2.84375 -0.78125,6.90625 -2.84375,-0.15625 -1.875,-1.125 -3.59375,-1.09375 L 123.9375,396 123.625,394.28125 124.5625,393 l 1.25,-7.0625 2.375,-6.75 2.65625,-0.78125 1.25,-5.96875 0.3125,-4.53125 -2.03125,-4.5625 0,-1.875 3.15625,-1.71875 2.96875,-0.96875 -0.15625,-4.84375 3.125,-1.25 0.96875,-3.3125 0.9375,-6.90625 5.3125,-3.59375 0.15625,-3.15625 -0.15625,-2.96875 1.28125,-1.71875 0.15625,-8.5 1.40625,-0.78125 0,-1.09375 -1.09375,-10.1875 -0.625,-9.75 L 147,296.03125 148.65625,295 l -0.53125,-0.0937 1.40625,-5.78125 -1.09375,-2.0625 -0.3125,-4.53125 0.9375,-4.09375 -1.09375,-5.5 -3,0 -3.28125,-4.6875 -2.84375,-5.96875 0.15625,-8.1563 2.0625,-3 0.15625,-7.6875 0.25,-0.65625 -2,-0.90625 -4.21875,-0.625 -3.9375,-1.40625 -8,-0.5 -5.5,4.25 0,2.34375 3.46875,6.4375 2.5,6.28125 -1.09375,4.09375 1.875,3.125 -0.15625,4.09375 1.5625,2.96875 -5.3125,0.3125 -3,1.59375 L 109.5,274.5 l -2.03125,-1.875 -2.1875,-1.71875 -4.65625,-0.125 2.125,4.53125 2.34375,4.9375 -1.28125,3.5625 -1.3125,3.59375 1.34375,3.21875 1.3125,3.21875 0.0625,3.59375 0.0937,3.59375 -1.21875,1.40625 c -2.64829,3.10948 -6.76551,8.90041 -8.59375,12.0625 -2.0516,3.54841 -2.24022,4.04828 -2.4375,6.25 -0.06875,0.76727 -1.2595,2.45477 -2.625,3.75 l -2.46875,2.34375 -0.03125,3 -0.0625,3 -1.96875,4.375 c -1.08792,2.39757 -1.96875,4.98507 -1.96875,5.75 l 0,1.375 -4.4375,0 -4.4375,0 -0.59375,1.90625 -0.625,1.9375 0.65625,2.53125 0.625,2.53125 -2.09375,2.96875 -2.09375,2.9375 0,2.5 0,2.46875 -1.5,0.59375 -1.5,0.5625 0,3.5625 0,3.5625 1.53125,0.59375 1.5625,0.59375 -1.625,1.78125 -1.625,1.8125 1.15625,2.1875 1.1875,2.1875 -0.5,1.78125 -0.46875,1.8125 1.75,5.09375 1.71875,5.125 3.09375,3.375 3.0625,3.375 1.25,4.125 1.21875,4.09375 1.25,0 1.25,0 0.65625,3.9375 0.6875,3.90625 -1.28125,2.34375 -1.25,2.3125 0.28125,9.125 c 0.14157,5.02033 0.64469,10.87036 1.125,13 l 0.875,3.875 3.53125,2.84375 3.5625,2.84375 0,3.40625 0,3.40625 2,1.21875 2,1.25 0,2.3125 0,2.28125 1.75,0.53125 c 0.9625,0.2984 2.875,1.213 4.25,2.03125 1.375,0.81825 3.2875,1.75726 4.25,2.0625 l 1.75,0.5625 0,1.21875 0,1.25 5.625,0.65625 5.65625,0.6875 3.25,2.71875 c 1.7841,1.49814 4.29658,3.55514 5.59375,4.5625 l 2.375,1.8125 5.09375,-0.5625 5.125,-0.5625 3.375,-1.5625 c 1.86496,-0.84723 5.33849,-3.09294 7.71875,-5 l 4.34375,-3.46875 1.78125,0 1.78125,0 2.71875,-2.125 2.71875,-2.125 5.84375,0.53125 5.875,0.53125 1.8125,-1.40625 c 0.99257,-0.7612 3.3875,-1.84053 5.3125,-2.40625 l 3.5,-1.03125 1.90625,-2.625 1.90625,-2.65625 0.15625,-3.09375 c 0.0728,-1.70014 0.59955,-3.99375 1.1875,-5.09375 0.58794,-1.1 1.63497,-4.3625 2.3125,-7.25 l 1.21875,-5.25 1,0 1.03125,0 -0.59375,-1.5625 -0.625,-1.53125 1.84375,-3.65625 z"
       id="path3726"
       transform="translate(143.8131,174.05911)" />
    <path
       style="fill:#6cba7e;fill-opacity:1;stroke:#000000;stroke-width:1;stroke-miterlimit:4;stroke-opacity:1;stroke-dasharray:none"
       d="m 235.9375,311.90625 -6.25,-0.125 -0.71875,-2.25 -4.46875,-2.5 -3.0625,0.53125 -2.25,3.78125 -3.0625,1.40625 -6.28125,0.125 -2.8125,-1.65625 0.28125,-4.625 1.40625,-3.78125 -0.28125,-1.25 L 208,299 l -3.6875,0 -4.25,2.5 -2.96875,-1.5625 -3.46875,-0.15625 -2.65625,3.9375 -5.8125,0.3125 -3.3125,2.96875 -5.625,0 -4.71875,-1.09375 -7.375,-1.09375 -0.78125,-2.375 -1.25,-3.4375 -2.84375,1.71875 -2.8125,-3.59375 -3.3125,-1.25 L 148.65625,295 147,296.03125 l 0.8125,4.6875 0.625,9.75 1.09375,10.1875 0,1.09375 -1.40625,0.78125 -0.15625,8.5 -1.28125,1.71875 0.15625,2.96875 -0.15625,3.15625 -5.3125,3.59375 -0.9375,6.90625 -0.96875,3.3125 -3.125,1.25 0.15625,4.84375 -2.96875,0.96875 -3.15625,1.71875 0,1.875 2.03125,4.5625 -0.3125,4.53125 -1.25,5.96875 -2.65625,0.78125 -2.375,6.75 -1.25,7.0625 -0.9375,1.28125 0.3125,1.71875 3.15625,2.8125 3.59375,1.09375 1.875,1.125 2.84375,0.15625 0.78125,-6.90625 4.875,-2.84375 6.75,-2.8125 2.96875,-1.5625 2.8125,-0.65625 3,1.75 2.8125,2.1875 1.71875,1.875 2.0625,4.25 2.03125,3.90625 2.34375,2.375 0.3125,7.0625 -0.15625,4.6875 0.15625,6.28125 -0.625,0.9375 0,2.84375 4.5625,3.59375 9.71875,7.375 0,4.875 2.53125,-0.625 2.5,-2.96875 0.15625,-4.40625 3.3125,-2.5 7.8125,4.25 0.9375,0.4375 0.625,-1.21875 c 1.35872,-2.68129 2.94842,-5.17104 3.53125,-5.53125 L 204,427.1875 l -0.5625,-1.875 -0.59375,-1.84375 1.625,-5.5625 1.59375,-5.5625 0.8125,0 0.78125,0 0.125,-5.125 0.125,-5.15625 1.25,-3.59375 1.25,-3.625 1.28125,-0.8125 1.25,-0.78125 -0.625,-3.8125 -0.59375,-3.8125 1.1875,-2.21875 1.15625,-2.1875 -1.0625,-1.28125 -1.0625,-1.28125 1.90625,-1.71875 1.875,-1.71875 0.65625,-3.375 L 217,368.5 l 1.1875,-0.40625 1.21875,-0.40625 -1.25,-2.75 -1.25,-2.78125 2,-0.53125 2.03125,-0.5 0,-2.40625 0,-2.375 1.375,0 1.375,0 0.6875,-2.25 c 0.37945,-1.2375 0.7778,-3.48746 0.875,-5 l 0.1875,-2.75 -0.84375,0 -0.84375,0 0.46875,-1.25 0.46875,-1.25 1.125,0.25 1.125,0.25 0,-1.4375 c 0,-0.79254 -0.45,-1.72258 -1,-2.0625 -0.55,-0.33992 -1,-1.04496 -1,-1.5625 l 0,-0.9375 1.375,0 1.375,0 1.75,-2.625 1.71875,-2.65625 0.375,-3.59375 c 0.20439,-1.98873 0.64367,-5.425 1,-7.625 l 0.65625,-4 1.375,-1.96875 1.375,-1.96875 0,-2 z"
       id="path3731"
       transform="translate(143.8131,174.05911)" />
    <path
       style="fill:#6cba7e;fill-opacity:1;stroke:#000000;stroke-width:1;stroke-miterlimit:4;stroke-opacity:1;stroke-dasharray:none"
       d="m 282,152.21875 2.90625,-1.1875 -1.28125,-6.15625 -0.40625,-2.65625 2.78125,-1.53125 -2.375,-2.65625 -1.09375,-2.65625 -7.15625,0.5625 -3.96875,-4.25 -0.625,0.46875 -4.625,0.125 -0.6875,6.03125 -2.8125,-0.28125 0,2.78125 -1.375,1.125 -1.96875,1.125 -2.5,0.6875 -2.375,0.15625 -2.65625,1.375 2.09375,3.21875 0.125,5.03125 -1.125,1.40625 0.4375,6 0.96875,1.6875 L 254,165 l -1.25,0.96875 -1.53125,2.9375 5.71875,4.1875 -0.125,5.1875 -8.125,10.0625 -4.34375,0.40625 -3.625,2.9375 -1.8125,-1.375 -0.40625,-7.96875 -4.75,-4.5 -1.6875,-0.125 -3.21875,-2.78125 -8.53125,-0.4375 -1.53125,0.84375 -2.8125,0 0.15625,15.9375 7.6875,12.15625 -0.6875,5.4375 -0.71875,0.4375 -1.125,5.71875 -1.8125,6.3125 -2.9375,4.75 L 215,230 l 2.8125,3.34375 0.125,15.8125 -2.375,4.3125 0.125,4.75 0.84375,5.1875 -1.09375,2.375 -0.28125,6.5625 0.96875,3.375 0.125,2.9375 -3.0625,4.75 -0.5625,8.78125 -4.625,6.71875 0,0.0937 0.4375,2.5625 0.28125,1.25 -1.40625,3.78125 -0.28125,4.625 2.8125,1.65625 6.28125,-0.125 3.0625,-1.40625 2.25,-3.78125 3.0625,-0.53125 4.46875,2.5 0.71875,2.25 6.25,0.125 0,-0.4375 0,-2.4375 2.5625,-4.375 2.5625,-4.375 -0.65625,-1.96875 -0.625,-1.96875 0.875,0 0.875,0 1.28125,-6.125 1.25,-6.15625 1.5625,-2.375 1.5625,-2.40625 0.875,-4.6875 0.875,-4.6875 2.5,-4.75 2.5,-4.78125 0,-2.125 c 0,-1.1645 0.62633,-3.51688 1.40625,-5.25 3.96324,-8.80704 5.59375,-13.07503 5.59375,-14.71875 l 0,-1.8125 1,-0.625 1,-0.625 0,-4.96875 0,-4.96875 1.59375,-2.46875 1.625,-2.46875 -1.125,0 -1.09375,0 0,-4.9375 0,-4.9375 -1,-0.625 -0.96875,-0.59375 3.1875,-5.65625 3.1875,-5.65625 0.0312,-2.4375 0.0625,-2.46875 3.4375,-1.15625 3.4375,-1.15625 -1.1875,-0.75 c -1.67558,-1.03556 -1.49972,-3.18777 0.4375,-5.125 l 1.65625,-1.65625 0.125,-6.625 0.125,-6.625 -2.25,-1.96875 -2.25,-1.96875 0.0625,-3.5625 0.0625,-3.59375 -1.09375,-3.5 c -0.59453,-1.92137 -1.0625,-4.92883 -1.0625,-6.6875 l 0,-3.1875 1.15625,-0.71875 c 0.64511,-0.3987 2.8784,-1.02972 4.9375,-1.40625 l 3.71875,-0.6875 0.8125,3.59375 c 0.43095,1.98027 0.81005,4.14611 0.84375,4.8125 0.0159,0.31452 0.38445,0.74052 0.59375,1.15625 z m -1.625,36.125 -1.71875,2.90625 -1.71875,2.90625 0,2.09375 0,2.09375 1,0 1,0 0,-1.8125 0,-1.8125 2,-2.15625 c 1.1,-1.18071 2,-2.6145 2,-3.1875 l 0,-1.03125 -1.28125,0 -1.28125,0 z"
       id="path3734"
       transform="translate(143.8131,174.05911)" />
    <path
       style="fill:#6cba7e;fill-opacity:1;stroke:#000000;stroke-width:1;stroke-miterlimit:4;stroke-opacity:1;stroke-dasharray:none"
       d="m 215.125,229.71875 -1.40625,0.0625 -3.9375,0.9375 -5.15625,0 -2.53125,-1.5625 -5.96875,-5.1875 -2.1875,-0.46875 -4.71875,3 -3.75,0.3125 -2.8125,-2.6875 -6.28125,-1.09375 -5.65625,0.46875 -3.46875,2.375 -5.15625,2.34375 -2.0625,0.46875 -2.65625,-1.25 -2.8125,-1.5625 -1.90625,0.46875 -1.5625,5.46875 -3.4375,8.65625 -3.78125,-0.625 -1.71875,1.09375 -0.875,1.75 0.1875,0.0937 -0.25,0.65625 -0.15625,7.6875 -2.0625,3 -0.15625,8.15625 2.84375,5.96875 3.28125,4.6875 3,0 1.09375,5.5 -0.9375,4.09375 0.3125,4.53125 1.09375,2.0625 -1.40625,5.78125 0.53125,0.0937 4.46875,0.875 3.3125,1.25 2.8125,3.59375 2.84375,-1.71875 1.25,3.4375 0.78125,2.375 7.375,1.09375 4.71875,1.09375 5.625,0 3.3125,-2.96875 5.8125,-0.3125 2.65625,-3.9375 3.46875,0.15625 2.96875,1.5625 4.25,-2.5 3.6875,0 0,-0.0937 4.625,-6.71875 0.5625,-8.78125 3.0625,-4.75 -0.125,-2.9375 -0.96875,-3.375 0.28125,-6.5625 1.09375,-2.375 -0.84375,-5.1875 -0.125,-4.75 2.375,-4.3125 -0.125,-15.8125 L 215,230 l 0.125,-0.28125 z"
       id="path3740"
       transform="translate(143.8131,174.05911)" />
    <path
       style="fill:#6cba7e;fill-opacity:1;stroke:#000000;stroke-width:1;stroke-miterlimit:4;stroke-opacity:1;stroke-dasharray:none"
       d="m 258.53125,27.84375 -0.375,2.25 -0.375,2.25 -1.65625,0.03125 -1.6875,0.03125 1.625,1.25 1.65625,1.25 -1.15625,1.5 c -0.62972,0.81332 -2.32018,1.97944 -3.78125,2.625 l -2.65625,1.1875 -0.6875,3.0625 -0.65625,3.0625 -1.4375,0 -1.40625,0 0.0312,2.25 0.0312,2.25 1.46875,1.9375 1.46875,1.9375 0,2.28125 c 0,2.72354 -1.98606,7.34375 -3.15625,7.34375 l -0.84375,0 0,3.65625 0,3.65625 -2.625,3.4375 -2.625,3.4375 -2.875,-0.40625 -2.875,-0.4375 0,1.21875 0,1.21875 -2.40625,0.59375 -2.375,0.59375 -0.59375,1.5625 -0.59375,1.5625 2.09375,0.75 2.09375,0.78125 -2.625,1.71875 -2.59375,1.71875 0,-0.96875 0,-0.96875 -2.71875,-0.3125 -2.71875,-0.3125 -0.5625,-2.40625 -0.53125,-2.375 -2.1875,-0.8125 -2.15625,-0.78125 -0.9375,1.1875 c -0.52809,0.65488 -1.27135,2.9875 -1.625,5.1875 l -0.625,4 3.03125,1.71875 3.03125,1.6875 0,1.0625 0,1.03125 -1.75,0.03125 -1.75,0.03125 1.75,1.03125 1.75,1 0,1.46875 0,1.4375 -2,0 -1.3125,0 1.625,0.625 4.03125,-0.84375 2.53125,-3.21875 2.5,-0.84375 -1.375,2.25 5.15625,4.03125 7.6875,0.28125 7.5625,4.21875 3.34375,-1.28125 3.5,-0.5625 11.46875,9.53125 0.28125,4.75 7.125,11.03125 0.34375,0.375 3.96875,4.25 7.15625,-0.5625 1.09375,2.65625 2.375,2.65625 -2.78125,1.53125 0.40625,2.65625 1.28125,6.15625 -2.90625,1.1875 c 0.23415,0.46508 0.32786,0.92161 0.6875,1.28125 0.68111,0.68111 1.25,1.73218 1.25,2.34375 l 0,1.125 2.90625,2.15625 2.90625,2.15625 2.1875,-4.65625 c 1.19748,-2.54752 3.02382,-7.44222 4.09375,-10.90625 l 1.96875,-6.3125 -2.90625,-5.78125 -2.875,-5.78125 -0.65625,-4.28125 c -0.36378,-2.36153 -1.05576,-5.06153 -1.53125,-6 -0.47549,-0.93848 -1.42793,-2.94374 -2.125,-4.4375 l -1.28125,-2.71875 1.0625,-1.28125 1.03125,-1.28125 -0.875,-9.28125 L 287,89.28125 285.34375,84.5625 c -0.90689,-2.59715 -1.81704,-6.07526 -2.03125,-7.71875 -0.21421,-1.64348 -0.66119,-3.78098 -0.96875,-4.75 l -0.5625,-1.75 -0.90625,0 -0.9375,0 0,-3.40625 0,-3.40625 -2.6875,-4.09375 c -2.57831,-3.93804 -4.3125,-5.18875 -4.3125,-3.09375 0,0.55 -0.45,1 -1,1 l -1,0 0,-3 0,-3 -1.5,0 -1.5,0 -0.0937,-2.25 c -0.12866,-3.89563 -0.93676,-7.13151 -1.9375,-7.75 -0.53088,-0.3281 -2.39001,-3.51672 -4.15625,-7.0625 l -3.21875,-6.4375 z"
       id="path3679-6"
       transform="translate(143.8131,174.05911)" />
    <text
       xml:space="preserve"
       style="font-size:35px;font-style:normal;font-variant:normal;font-weight:normal;font-stretch:normal;text-align:start;line-height:125%;writing-mode:lr-tb;text-anchor:start;fill:#000000;fill-opacity:1;stroke:none;font-family:MS PGothic;-inkscape-font-specification:MS PGothic"
       x="136.23218"
       y="470.39337"
       id="text3741"
       sodipodi:linespacing="125%"><tspan
         sodipodi:role="line"
         id="tspan3743"
         x="136.23218"
         y="470.39337" /></text>
    <g
       style="font-size:35px;font-style:normal;font-variant:normal;font-weight:normal;font-stretch:normal;text-align:start;line-height:125%;writing-mode:lr-tb;text-anchor:start;fill:#000000;fill-opacity:1;stroke:none;font-family:MS PGothic;-inkscape-font-specification:MS PGothic"
       id="text3745">
      <path
         d="m 324.3399,427.58337 c 0.82031,-0.82029 1.27604,-1.73174 1.36719,-2.73437 l 1.64063,0 0,23.65234 -3.14453,0 0,-18.18359 -4.10157,0 0,-1.64063 1.23047,0 c 1.27604,2e-5 2.27864,-0.36456 3.00781,-1.09375 z"
         id="path2861" />
    </g>
    <g
       style="font-size:35px;font-style:normal;font-variant:normal;font-weight:normal;font-stretch:normal;text-align:start;line-height:125%;writing-mode:lr-tb;text-anchor:start;fill:#000000;fill-opacity:1;stroke:none;font-family:MS PGothic;-inkscape-font-specification:MS PGothic"
       id="text3749">
      <path
         d="m 404.11499,259.28882 c 0,-2.8255 0.72916,-4.96743 2.1875,-6.42578 1.18489,-1.18488 2.59765,-1.77732 4.23828,-1.77735 2.0052,3e-5 3.60025,0.59247 4.78516,1.77735 1.18488,1.18491 1.77733,2.64325 1.77734,4.375 -1e-5,2.18751 -0.68361,4.10157 -2.05078,5.74218 -1.27605,1.54949 -2.59767,3.0534 -3.96484,4.51172 -0.72918,0.82032 -1.45834,1.64063 -2.1875,2.46094 -0.63803,0.72917 -1.18491,1.45834 -1.64063,2.1875 l 10.25391,0 0,2.59766 -13.94531,0 0,-2.32422 c 0.18228,-0.91146 0.95702,-2.1875 2.32421,-3.82813 2.27864,-2.46093 4.14713,-4.5117 5.60547,-6.15234 1.54947,-1.64061 2.32421,-3.37238 2.32422,-5.19531 -1e-5,-1.09373 -0.36459,-2.00519 -1.09375,-2.73438 -0.54688,-0.54685 -1.23048,-0.82029 -2.05078,-0.82031 -0.72917,2e-5 -1.36719,0.27346 -1.91406,0.82031 -1.00261,1.00263 -1.50391,2.59768 -1.50391,4.78516 z"
         id="path2852" />
    </g>
    <g
       style="font-size:35px;font-style:normal;font-variant:normal;font-weight:normal;font-stretch:normal;text-align:start;line-height:125%;writing-mode:lr-tb;text-anchor:start;fill:#000000;fill-opacity:1;stroke:none;font-family:MS PGothic;-inkscape-font-specification:MS PGothic"
       id="text3753">
      <path
         d="m 326.89581,521.73352 c 0,-2.09633 0.68359,-3.8281 2.05078,-5.19531 1.18489,-1.18487 2.64323,-1.77732 4.375,-1.77735 2.0052,3e-5 3.60025,0.59248 4.78516,1.77735 1.09374,1.09377 1.64061,2.5521 1.64063,4.375 -2e-5,1.82293 -0.45575,3.19012 -1.36719,4.10156 -0.63804,0.63803 -1.32163,1.00262 -2.05078,1.09375 0.91144,0.27345 1.68618,0.72918 2.32422,1.36719 1.09373,1.09376 1.6406,2.55209 1.64062,4.375 -2e-5,2.00521 -0.63804,3.64583 -1.91406,4.92187 -1.27606,1.27605 -3.0534,1.91407 -5.33203,1.91407 -1.91407,0 -3.50912,-0.63802 -4.78516,-1.91407 -1.27604,-1.27604 -1.91406,-2.77994 -1.91406,-4.51172 l 0,-1.09375 3.14453,0 0,0.95704 c -10e-6,1.1849 0.41015,2.1875 1.23047,3.00781 0.63801,0.63802 1.41275,0.95703 2.32422,0.95703 1.18488,0 2.14191,-0.36458 2.87109,-1.09375 0.72916,-0.72916 1.09374,-1.86848 1.09375,-3.41797 -10e-6,-1.27603 -0.36459,-2.27864 -1.09375,-3.00781 -0.72918,-0.72916 -1.54949,-1.09374 -2.46094,-1.09375 l -1.09375,0 0,-2.32422 0.82032,0 c 0.8203,1e-5 1.59504,-0.36457 2.32421,-1.09375 0.72916,-0.72915 1.09374,-1.77733 1.09375,-3.14453 -1e-5,-1.18488 -0.36459,-2.14191 -1.09375,-2.8711 -0.54688,-0.54685 -1.27605,-0.82029 -2.1875,-0.82031 -0.82032,2e-5 -1.54948,0.31903 -2.1875,0.95703 -0.72917,0.72919 -1.13932,1.91408 -1.23046,3.55469 z"
         id="path2846" />
    </g>
    <g
       style="font-size:35px;font-style:normal;font-variant:normal;font-weight:normal;font-stretch:normal;text-align:start;line-height:125%;writing-mode:lr-tb;text-anchor:start;fill:#000000;fill-opacity:1;stroke:none;font-family:MS PGothic;-inkscape-font-specification:MS PGothic"
       id="text3757">
      <path
         d="m 318.63947,350.90558 3.14453,0 0,15.03906 2.87109,0 0,2.59766 -2.87109,0 0,6.01562 -3.14453,0 0,-6.01562 -9.16016,0 0,-2.73438 z m 0,5.05859 -6.15235,9.98047 6.15235,0 z"
         id="path2855" />
    </g>
    <g
       style="font-size:35px;font-style:normal;font-variant:normal;font-weight:normal;font-stretch:normal;text-align:start;line-height:125%;writing-mode:lr-tb;text-anchor:start;fill:#000000;fill-opacity:1;stroke:none;font-family:MS PGothic;-inkscape-font-specification:MS PGothic"
       id="text3761">
      <path
         d="m 379.46899,387.59131 11.75782,0 0,2.59765 -9.16016,0 0,0.41016 c -0.0911,1.73179 -0.22787,3.41799 -0.41016,5.05859 -0.0912,0.27346 -0.13672,0.5469 -0.13671,0.82032 1.18488,-1.09374 2.46092,-1.64061 3.82812,-1.64063 1.82291,2e-5 3.32681,0.59247 4.51172,1.77735 1.27603,1.27605 1.91405,3.14454 1.91406,5.60546 -1e-5,3.09897 -0.82033,5.46876 -2.46094,7.10938 -1.27605,1.27604 -2.8711,1.91406 -4.78515,1.91406 -1.82293,0 -3.32683,-0.59244 -4.51172,-1.77734 -1.1849,-1.18489 -1.91407,-2.96224 -2.1875,-5.33203 l 3.14453,0 c 0.18229,1.73177 0.63802,2.96224 1.36719,3.6914 0.54687,0.54688 1.23046,0.82032 2.05078,0.82032 1.09374,0 1.95962,-0.31901 2.59766,-0.95704 1.00259,-1.00259 1.50389,-2.68879 1.5039,-5.05859 -1e-5,-2.27863 -0.41017,-3.82811 -1.23047,-4.64844 -0.54688,-0.54686 -1.1849,-0.82029 -1.91406,-0.82031 -1.09376,2e-5 -2.05079,0.41017 -2.87109,1.23047 -0.54688,0.54689 -0.91147,0.95704 -1.09375,1.23047 l -2.73438,0 c 0.0911,-0.36457 0.13672,-0.68358 0.13672,-0.95703 l 0.68359,-10.52735 z"
         id="path2858" />
    </g>
    <g
       style="font-size:35px;font-style:normal;font-variant:normal;font-weight:normal;font-stretch:normal;text-align:start;line-height:125%;writing-mode:lr-tb;text-anchor:start;fill:#000000;fill-opacity:1;stroke:none;font-family:MS PGothic;-inkscape-font-specification:MS PGothic"
       id="text3765">
      <path
         d="m 237.96614,554.19757 c 0,-5.013 1.09375,-8.61326 3.28125,-10.80078 1.09374,-1.09373 2.46093,-1.6406 4.10156,-1.64063 1.73176,3e-5 3.14452,0.5469 4.23828,1.64063 1.18489,1.18492 1.77733,2.68882 1.77735,4.51172 l -3.14453,0 c -2e-5,-1.27602 -0.27345,-2.18748 -0.82032,-2.73438 -0.54688,-0.54685 -1.23047,-0.82029 -2.05078,-0.82031 -0.82032,2e-5 -1.50391,0.27346 -2.05078,0.82031 -1.45834,1.45836 -2.1875,4.01044 -2.1875,7.65625 0.36458,-0.638 0.82031,-1.23045 1.36719,-1.77734 0.8203,-0.8203 1.82291,-1.23045 3.00781,-1.23047 1.64062,2e-5 3.0078,0.54689 4.10156,1.64063 1.36718,1.3672 2.05077,3.41798 2.05079,6.15234 -2e-5,2.82553 -0.72919,4.96745 -2.1875,6.42578 -1.09377,1.09375 -2.59767,1.64063 -4.51172,1.64063 -1.64064,0 -3.14454,-0.6836 -4.51172,-2.05079 -1.64063,-1.64062 -2.46094,-4.78514 -2.46094,-9.43359 z m 7.24609,-1.91406 c -0.91146,10e-6 -1.6862,0.31902 -2.32421,0.95703 -1.00261,1.00262 -1.50392,2.3698 -1.50391,4.10156 -1e-5,2.18751 0.54687,3.82813 1.64062,4.92188 0.63802,0.63802 1.32161,0.95703 2.05079,0.95703 0.8203,0 1.50389,-0.27344 2.05078,-0.82031 0.8203,-0.82031 1.23045,-2.41536 1.23047,-4.78516 -2e-5,-2.09634 -0.41017,-3.55468 -1.23047,-4.375 -0.63803,-0.63801 -1.27605,-0.95702 -1.91407,-0.95703 z"
         id="path2849" />
    </g>
  </g>
</svg>
