<?xml version="1.0" encoding="utf-8"?>
<!-- Generator: Adobe Illustrator 21.0.2, SVG Export Plug-In . SVG Version: 6.00 Build 0)  -->
<svg version="1.1" id="Layer_1" xmlns="http://www.w3.org/2000/svg" xmlns:xlink="http://www.w3.org/1999/xlink" x="0px" y="0px"
	 width="2272px" height="1872px" viewBox="0 0 2272 1872" enable-background="new 0 0 2272 1872" xml:space="preserve">
<g>
	<path fill="#2385C6" d="M1249.5,345.2c-30.5,11.1-70.8,17.1-113.5,17.1c-42.7,0-83-6.1-113.5-17.1c-20.3-7.4-33.2-15.7-41.2-24V370
		c0,31,69.2,56.1,154.7,56.1s154.7-25.1,154.7-56.1v-48.7C1282.7,329.5,1269.8,337.9,1249.5,345.2z"/>
	<g>
		<path fill="#47BA7D" d="M1268.3,265.2c-27.1-16.2-76.2-27-132.3-27c-85.4,0-154.7,25.1-154.7,56.1c0,1.7,0.2,3.3,0.6,4.9
			L1268.3,265.2z"/>
		<path fill="#47BA7D" d="M988.8,311.4c20,22.6,78.4,38.9,147.2,38.9c85.4,0,154.7-25.1,154.7-56.1c0-6.2-2.8-12.1-7.8-17.6
			L988.8,311.4z"/>
	</g>
</g>
<g>
	<path fill="#2385C6" d="M1737.4,362.3h-43V302h43c34.2,0,62-27.7,62-62v-43h60.3v43C1859.7,307.5,1804.9,362.3,1737.4,362.3z"/>
	<path fill="#47BA7D" d="M1921.6,302h43v60.3h-43c-34.2,0-62,27.7-62,62v43h-60.3v-43C1799.4,356.7,1854.1,302,1921.6,302z"/>
</g>
<g>
	<path fill="#47BA7D" d="M618.8,820.5c-45.5-5.7-96.4,20.1-126.4,68.7c-30,48.6-30.4,105.7-4.9,143.8c0,0,32.9-99.7,112.5-180.1
		c0,0-68.7,83.6-88.5,180.2c38.5-4.1,77.5-28.7,102.3-68.9C644,915.7,644.4,858.6,618.8,820.5z"/>
	<path fill="#2385C6" d="M361.5,904.8c27.5-3.5,58.1,12.1,76.3,41.5c18.1,29.3,18.3,63.8,2.9,86.7c0,0-19.9-60.1-67.9-108.7
		c0,0,41.4,50.5,53.4,108.8c-23.2-2.5-46.8-17.3-61.7-41.6C346.3,962.2,346.1,927.8,361.5,904.8z"/>
</g>
<g>

		<rect x="1182.7" y="774" transform="matrix(0.7071 0.7071 -0.7071 0.7071 962.8154 -593.6091)" fill="#47BA7D" width="30.6" height="182.8"/>

		<rect x="1094.6" y="852.9" transform="matrix(0.7071 0.7071 -0.7071 0.7071 995.4729 -514.7669)" fill="#2385C6" width="49" height="182.8"/>

		<rect x="1039.1" y="1003.4" transform="matrix(0.7071 0.7071 -0.7071 0.7071 1022.2361 -450.1547)" fill="#2385C6" width="30.8" height="10.9"/>
	<path fill="#2385C6" d="M1209.7,905.6l-51.9-51.9c-1.9-1.9-1.9-5,0-6.9l0,0c1.9-1.9,5-1.9,6.9,0l51.9,51.9c1.9,1.9,1.9,5,0,6.9l0,0
		C1214.7,907.5,1211.6,907.5,1209.7,905.6z"/>
	<path fill="#47BA7D" d="M1277,815.2l-28.8-28.8c-1.9-1.9-1.9-5,0-6.9l0,0c1.9-1.9,5-1.9,6.9,0l28.8,28.8c1.9,1.9,1.9,5,0,6.9l0,0
		C1282,817.1,1278.9,817.1,1277,815.2z"/>
	<path fill="#FFFFFF" d="M1056,982.7L1056,982.7c-0.8-0.8-0.8-2.2,0-3l105.4-105.4c0.8-0.8,2.2-0.8,3,0v0c0.8,0.8,0.8,2.2,0,3
		l-105.4,105.4C1058.2,983.5,1056.9,983.5,1056,982.7z"/>
	<path fill="#2385C6" d="M987.8,1073.7L987.8,1073.7c-1.5-1.5-1.5-3.9,0-5.4l64.2-64.2c1.5-1.5,3.9-1.5,5.4,0l0,0
		c1.5,1.5,1.5,3.9,0,5.4l-64.2,64.2C991.7,1075.2,989.3,1075.2,987.8,1073.7z"/>
</g>
<g>
	<path fill="#2385C6" d="M1790.3,775.5v169.2c0,7.7-2.2,15.2-6.3,21.6l-47.5,55.1c-17.1,26.6,2,61.7,33.7,61.7h59.3h59.3
		c31.7,0,50.8-35,33.7-61.7l-47.5-55.1c-4.1-6.4-6.3-13.9-6.3-21.6V775.5H1790.3z"/>
	<path fill="#FFFFFF" d="M1783.4,1072.7c-13.5,0-25.4-6.6-31.9-17.7c-6.5-11.1-6-24.1,1.3-34.7l0.2-0.3l38.7-42.1h75.6l38.7,42.1
		l0.2,0.3c7.3,10.6,7.8,23.6,1.3,34.7c-6.5,11.1-18.4,17.7-31.9,17.7H1783.4z"/>
	<path fill="#47BA7D" d="M1864.9,982.8l36.9,40.1c13.3,19.4-1.6,45-26.2,45h-46.2h-46.2c-24.6,0-39.5-25.5-26.2-45l36.9-40.1H1864.9
		z"/>
	<path fill="#2385C6" d="M1877.5,781.2h-95.9c-3.2,0-5.7-2.6-5.7-5.7l0,0c0-3.2,2.6-5.7,5.7-5.7h95.9c3.2,0,5.7,2.6,5.7,5.7l0,0
		C1883.2,778.7,1880.6,781.2,1877.5,781.2z"/>
	<path fill="#FFFFFF" d="M1798.4,947.2L1798.4,947.2c-1.5,0-2.7-1.2-2.7-2.7V794.4c0-1.5,1.2-2.7,2.7-2.7l0,0c1.5,0,2.7,1.2,2.7,2.7
		v150.2C1801.1,946,1799.9,947.2,1798.4,947.2z"/>
	<circle fill="#FFFFFF" cx="1843.9" cy="945.2" r="7.4"/>
	<circle fill="#FFFFFF" cx="1821.8" cy="858.3" r="7.4"/>
	<circle fill="#FFFFFF" cx="1823.8" cy="921.8" r="5.7"/>
	<circle fill="#FFFFFF" cx="1845.6" cy="893.6" r="5.7"/>
</g>
<g>
	<path fill="#47BA7D" d="M457.2,288.5l90.5-90.5c22.2-22.2,58.1-22.2,80.2,0l0,0c22.2,22.2,22.2,58.1,0,80.2l-90.5,90.5L457.2,288.5
		z"/>
	<path fill="#2385C6" d="M530.4,375.7l-90.5,90.5c-22.2,22.2-58.1,22.2-80.2,0l0,0c-22.2-22.2-22.2-58.1,0-80.2l90.5-90.5
		L530.4,375.7z"/>
	<path fill="#FFFFFF" d="M525.4,231.8l37.7-33.1c12.3-10.8,30.7-11.1,43.3-0.7l16,13.2l-22.2-10.2c-10.6-4.9-22.9-3.9-32.6,2.5
		L525.4,231.8z"/>
</g>
<g>
	<path fill="#47BA7D" d="M1956.9,1570.7c0,70.4-57,127.4-127.4,127.4c-70.4,0-127.4-57-127.4-127.4H1956.9z"/>
	<path fill="#2385C6" d="M1867.1,1562.6c2.2-10.5-0.8-21.2-7.4-29l38.8-120.2c3.1-9.5-2.2-19.8-11.7-22.9
		c-9.5-3.1-19.8,2.2-22.9,11.7l-38.8,120.2c-11.1,2.8-20.5,11-24.3,22.7c-1.9,5.9-2.1,11.9-0.9,17.5H1867.1z"/>
	<circle fill="#47BA7D" cx="1742.3" cy="1545.1" r="8.5"/>
	<circle fill="#47BA7D" cx="1903.3" cy="1536.6" r="12.6"/>
	<circle fill="#47BA7D" cx="1773.1" cy="1516.7" r="4.5"/>
	<path fill="#FFFFFF" d="M1714.6,1584.2c0,0,4,70.8,78,94.1c0,0-65.9-37.8-65.9-94.1H1714.6z"/>
</g>
<g>
	<path fill="#47BA7D" d="M1245.5,1420.6c0,44.4-57,80.4-127.4,80.4c-70.4,0-127.4-36-127.4-80.4H1245.5z"/>
	<rect x="1109" y="1454.1" fill="#47BA7D" width="18.1" height="276.2"/>
	<path fill="#2385C6" d="M1116.8,1732.6c-3,0-9.7-0.2-17.3-1.7c-14.7-2.9-25.6-9-32.3-18.1c-8.5-11.4-9.6-26.2-3.4-44
		c12.5-35.8,51.4-41.1,79.8-45c10.7-1.5,26.1-3.5,30.7-7.3c-8-4.3-32.7-8.4-49.6-11.1c-41-6.7-83.4-13.6-97.1-36.2
		c-4.8-8-5.7-17.3-2.4-26.9c14-41.9,66.7-45.2,117.6-48.3c28.2-1.7,57.3-3.5,79.6-11.5c17.6-6.3,32.2-26.3,36.2-49.8
		c3.4-19.9-1.8-37.6-13.9-47.5c-17.9-14.6-50.9-13.5-93.1,3l-7.9-20.2c63.8-25,97.6-13.6,114.7,0.4c18.2,14.9,26.3,40.3,21.6,68
		c-5.4,31.4-25.1,57.5-50.3,66.5c-25.2,9-55.9,10.9-85.6,12.8c-45.8,2.8-89,5.5-98.4,33.5c-1.6,4.6-0.6,7.2,0.4,8.8
		c8.5,14,51,20.9,82,26c36.8,6,58,9.9,65.9,21.5c2.8,4.1,3.8,8.8,2.8,13.6c-2,9.6-9,16.5-20.9,20.5c-8.4,2.9-18.6,4.2-29.5,5.7
		c-31.7,4.3-54.6,9-62.2,30.6c-3.7,10.6-3.6,18.7,0.3,24c7.2,9.8,26.7,11.2,33,11l0.9,21.7
		C1118.4,1732.6,1117.8,1732.6,1116.8,1732.6z"/>
	
		<ellipse transform="matrix(0.9201 -0.3917 0.3917 0.9201 -451.6328 555.0795)" fill="#2385C6" cx="1134.8" cy="1384.6" rx="30.2" ry="15.6"/>
	<path fill="#47BA7D" d="M1049.9,1734.5c0-14.1,30.5-25.5,68.1-25.5c37.6,0,68.1,11.4,68.1,25.5H1049.9z"/>
	<g>
		<path fill="#47BA7D" d="M1127.1,1605.8v-22c-5.8-0.9-11.9-1.9-18.1-3v22c5.2,0.9,10.4,1.7,15.6,2.6
			C1125.5,1605.5,1126.3,1605.7,1127.1,1605.8z"/>
	</g>
	<path fill="#FFFFFF" d="M1000.1,1426.7h18.5c0,0,4.7,53.9,68.3,61.1C1086.9,1487.9,1021.4,1495.9,1000.1,1426.7z"/>
</g>
</svg>
