<svg xmlns="http://www.w3.org/2000/svg" xmlns:xlink="http://www.w3.org/1999/xlink" version="1.1" width="293.83871463930427" height="384.19355089284886" enable-background="new 0 0 2272 1872" xml:space="preserve"><rect id="backgroundrect" width="100%" height="100%" x="0" y="0" fill="none" stroke="none"/>

<g class="currentLayer" style=""><title>Credits to freevector.com</title><g id="svg_1" class="">
	<path fill="#54826a" d="M257.50461089611053,68.80277190208426 c0,44.4 -57,80.4 -127.4,80.4 c-70.4,0 -127.4,-36 -127.4,-80.4 H257.50461089611053 z" id="svg_2"/>
	<rect x="121.00461089611053" y="102.30274748802185" fill="#54826a" width="18.100000381469727" height="276.20001220703125" id="svg_3"/>
	<path fill="#2385C6" d="M128.8046108961105,380.80277190208426 c-3,0 -9.7,-0.2 -17.3,-1.7000000000000002 c-14.7,-2.9 -25.6,-9 -32.3,-18.1 c-8.5,-11.4 -9.6,-26.2 -3.4,-44 c12.5,-35.8 51.4,-41.1 79.8,-45 c10.7,-1.5 26.1,-3.5 30.7,-7.3 c-8,-4.3 -32.7,-8.4 -49.6,-11.1 c-41,-6.7 -83.4,-13.6 -97.1,-36.2 c-4.8,-8 -5.7,-17.3 -2.4,-26.9 c14,-41.9 66.7,-45.2 117.6,-48.3 c28.2,-1.7000000000000002 57.3,-3.5 79.6,-11.5 c17.6,-6.3 32.2,-26.3 36.2,-49.8 c3.4,-19.9 -1.8,-37.6 -13.9,-47.5 c-17.9,-14.6 -50.9,-13.5 -93.1,3 l-7.9,-20.2 c63.8,-25 97.6,-13.6 114.7,0.4 c18.2,14.9 26.3,40.3 21.6,68 c-5.4,31.4 -25.1,57.5 -50.3,66.5 c-25.2,9 -55.9,10.9 -85.6,12.8 c-45.8,2.8 -89,5.5 -98.4,33.5 c-1.6,4.6 -0.6000000000000004,7.2 0.4,8.8 c8.5,14 51,20.9 82,26 c36.8,6 58,9.9 65.9,21.5 c2.8,4.1 3.8,8.8 2.8,13.6 c-2,9.6 -9,16.5 -20.9,20.5 c-8.4,2.9 -18.6,4.2 -29.5,5.7 c-31.7,4.3 -54.6,9 -62.2,30.6 c-3.7,10.6 -3.6,18.7 0.3000000000000002,24 c7.2,9.8 26.7,11.2 33,11 l0.9,21.7 C130.40461089611063,380.80277190208426 129.8046108961105,380.80277190208426 128.8046108961105,380.80277190208426 z" id="svg_4"/>
	
		<ellipse transform="matrix(0.9201,-0.3917,0.3917,0.9201,-451.6328,555.0795) " fill="#2385C6" cx="755.2493617634528" cy="-246.16541102546086" rx="30.200000762939453" ry="15.600000381469727" id="svg_5"/>
	<path fill="#54826a" d="M61.904610896110626,382.70277190208435 c0,-14.1 30.5,-25.5 68.1,-25.5 c37.6,0 68.1,11.4 68.1,25.5 H61.904610896110626 z" id="svg_6"/>
	<g id="svg_7">
		<path fill="#54826a" d="M139.10461089611044,254.0027719020843 v-22 c-5.8,-0.9 -11.9,-1.9 -18.1,-3 v22 c5.2,0.9 10.4,1.7000000000000002 15.6,2.6 C137.50461089611053,253.70277190208435 138.3046108961105,253.9027719020844 139.10461089611044,254.0027719020843 z" id="svg_8"/>
	</g>
	<path fill="#FFFFFF" d="M12.104610896110557,74.9027719020844 h18.5 c0,0 4.7,53.9 68.3,61.1 C98.90461089611063,136.10277190208444 33.40461089611051,144.10277190208444 12.104610896110557,74.9027719020844 z" id="svg_9"/>
</g></g></svg>